<svg width="14" height="17" viewBox="0 0 14 17" fill="none" xmlns="http://www.w3.org/2000/svg">
<path d="M6.86924 15.4058C7.03141 15.543 7.17381 15.6643 7.31488 15.7869C7.6155 16.0492 7.61813 16.516 7.32016 16.781C7.30434 16.7955 7.29379 16.8034 7.28983 16.8074L7.28588 16.8113C7.04328 17.0078 6.6952 17.0078 6.4526 16.8113L6.44865 16.8074C6.38404 16.7546 4.83484 15.4981 3.26454 13.6945C1.09829 11.2078 0 9.0086 0 7.09286V6.9742C0 3.20469 2.99293 0.058813 6.76244 0.000800237C10.5992 -0.0572125 13.7385 3.04647 13.7385 6.87004V7.0599C13.7385 7.29327 13.7227 7.53191 13.6897 7.77583C13.637 8.16874 13.252 8.4232 12.8683 8.32827C12.8643 8.32695 12.8591 8.32563 12.8551 8.32563C12.5268 8.24521 12.3185 7.92614 12.3633 7.59124C12.387 7.41325 12.3989 7.23526 12.3989 7.0599V6.96233C12.3989 3.93512 10.0032 1.39838 6.97736 1.34169C3.88026 1.28236 1.34089 3.78613 1.34089 6.87004V7.0599C1.34089 10.2967 5.51121 14.2152 6.87056 15.4058H6.86924ZM6.86924 3.68593C5.11435 3.68593 3.68645 5.11384 3.68645 6.87004C3.68645 8.62493 5.11435 10.0528 6.86924 10.0528C8.62413 10.0528 10.0534 8.62493 10.0534 6.87004C10.0534 5.11515 8.62545 3.68593 6.86924 3.68593ZM6.86924 8.71195C5.8527 8.71195 5.02602 7.88526 5.02602 6.86872C5.02602 5.85218 5.8527 5.0255 6.86924 5.0255C7.88578 5.0255 8.71247 5.85218 8.71247 6.86872C8.71247 7.88526 7.88578 8.71195 6.86924 8.71195Z" fill="#2469CF"/>
</svg>
