<svg width="34" height="33" viewBox="0 0 34 33" fill="none" xmlns="http://www.w3.org/2000/svg">
<path d="M33.2227 16.5C33.2227 7.38869 25.834 0 16.7227 0C7.61135 0 0.222656 7.38869 0.222656 16.5C0.222656 25.6113 7.61135 33 16.7227 33C16.8196 33 16.916 32.998 17.0127 32.9962V20.1517H13.4678V16.0204H17.0127V12.9803C17.0127 9.45447 19.1651 7.53548 22.3102 7.53548C23.8163 7.53548 25.1109 7.64777 25.4883 7.69787V11.3828H23.3195C21.6085 11.3828 21.2772 12.196 21.2772 13.3891V16.0204H25.3684L24.8352 20.1517H21.2772V32.3625C28.1739 30.3854 33.2227 24.0314 33.2227 16.5Z" fill="#3A3A3A"/>
</svg>
