<svg width="33" height="33" viewBox="0 0 33 33" fill="none" xmlns="http://www.w3.org/2000/svg">
<path d="M19.635 16.5007C19.635 18.2331 18.2307 19.6373 16.4984 19.6373C14.7661 19.6373 13.3618 18.2331 13.3618 16.5007C13.3618 14.7684 14.7661 13.3641 16.4984 13.3641C18.2307 13.3641 19.635 14.7684 19.635 16.5007Z" fill="#3A3A3A"/>
<path d="M23.8341 10.9512C23.6833 10.5426 23.4427 10.1728 23.1302 9.86921C22.8266 9.55665 22.4571 9.3161 22.0482 9.16532C21.7167 9.03655 21.2186 8.88327 20.3011 8.84151C19.3087 8.79625 19.0111 8.7865 16.4987 8.7865C13.9859 8.7865 13.6884 8.796 12.6962 8.84126C11.7788 8.88327 11.2804 9.03655 10.9491 9.16532C10.5403 9.3161 10.1704 9.55665 9.86714 9.86921C9.55458 10.1728 9.31403 10.5423 9.163 10.9512C9.03423 11.2827 8.88095 11.7811 8.83919 12.6985C8.79393 13.6907 8.78418 13.9882 8.78418 16.501C8.78418 19.0135 8.79393 19.311 8.83919 20.3035C8.88095 21.2209 9.03423 21.719 9.163 22.0505C9.31403 22.4594 9.55433 22.8289 9.86689 23.1325C10.1704 23.4451 10.54 23.6856 10.9488 23.8364C11.2804 23.9654 11.7788 24.1187 12.6962 24.1604C13.6884 24.2057 13.9857 24.2152 16.4984 24.2152C19.0114 24.2152 19.3089 24.2057 20.3009 24.1604C21.2183 24.1187 21.7167 23.9654 22.0482 23.8364C22.8689 23.5198 23.5175 22.8712 23.8341 22.0505C23.9628 21.719 24.1161 21.2209 24.1581 20.3035C24.2034 19.311 24.2129 19.0135 24.2129 16.501C24.2129 13.9882 24.2034 13.6907 24.1581 12.6985C24.1164 11.7811 23.9631 11.2827 23.8341 10.9512ZM16.4987 21.3327C13.8299 21.3327 11.6665 19.1695 11.6665 16.5007C11.6665 13.832 13.8299 11.6688 16.4987 11.6688C19.1672 11.6688 21.3306 13.832 21.3306 16.5007C21.3306 19.1695 19.1672 21.3327 16.4987 21.3327ZM21.5216 12.607C20.898 12.607 20.3924 12.1014 20.3924 11.4778C20.3924 10.8541 20.898 10.3485 21.5216 10.3485C22.1452 10.3485 22.6508 10.8541 22.6508 11.4778C22.6506 12.1014 22.1452 12.607 21.5216 12.607Z" fill="#3A3A3A"/>
<path d="M16.4985 0.113403C7.44948 0.113403 0.111328 7.45156 0.111328 16.5005C0.111328 25.5495 7.44948 32.8877 16.4985 32.8877C25.5475 32.8877 32.8856 25.5495 32.8856 16.5005C32.8856 7.45156 25.5475 0.113403 16.4985 0.113403ZM25.8515 20.38C25.806 21.3817 25.6467 22.0656 25.4142 22.6642C24.9253 23.9282 23.9261 24.9274 22.6621 25.4163C22.0638 25.6488 21.3797 25.8078 20.3782 25.8536C19.3748 25.8993 19.0542 25.9103 16.4987 25.9103C13.943 25.9103 13.6227 25.8993 12.619 25.8536C11.6175 25.8078 10.9334 25.6488 10.335 25.4163C9.70692 25.18 9.13831 24.8096 8.66822 24.3308C8.18963 23.861 7.81931 23.2921 7.58301 22.6642C7.35047 22.0659 7.19118 21.3817 7.14568 20.3803C7.09942 19.3766 7.08867 19.056 7.08867 16.5005C7.08867 13.9451 7.09942 13.6245 7.14543 12.621C7.19093 11.6194 7.34997 10.9355 7.58251 10.3369C7.81881 9.70899 8.18938 9.14013 8.66822 8.67029C9.13806 8.19145 9.70692 7.82113 10.3348 7.58484C10.9334 7.35229 11.6173 7.19326 12.619 7.1475C13.6224 7.10174 13.943 7.09074 16.4985 7.09074C19.054 7.09074 19.3745 7.10174 20.378 7.14775C21.3797 7.19326 22.0635 7.35229 22.6621 7.58459C23.29 7.82088 23.8589 8.19145 24.329 8.67029C24.8076 9.14038 25.1781 9.70899 25.4142 10.3369C25.647 10.9355 25.806 11.6194 25.8518 12.621C25.8975 13.6245 25.9083 13.9451 25.9083 16.5005C25.9083 19.056 25.8975 19.3766 25.8515 20.38Z" fill="#3A3A3A"/>
</svg>
