<svg width="132" height="73" viewBox="0 0 132 73" fill="none" xmlns="http://www.w3.org/2000/svg">
<path d="M32.3606 70.1741C32.3606 69.4494 31.872 68.9805 31.065 68.9805H26.8382V71.2939H31.0449C31.9026 71.2939 32.3606 70.8995 32.3606 70.1741ZM32.1615 67.1269C32.1615 66.5193 31.7523 66.0812 31.1052 66.0812H26.8382V68.3094H30.9748C31.6534 68.3094 32.1615 67.7986 32.1615 67.1269ZM33.0385 70.2063C33.0385 71.2724 32.2811 71.9649 31.0543 71.9649H26.1897V65.411H31.0143C32.1714 65.411 32.8493 66.0812 32.8493 67.1161C32.8493 67.7986 32.5604 68.2567 31.9321 68.5968C32.6801 68.9484 33.0385 69.4609 33.0385 70.2063Z" fill="#555555"/>
<path d="M35.9773 71.9649V65.411H41.7993V66.0812H36.6252V68.1602H40.2243V68.832H36.6252V71.2939H42.0386V71.9649H35.9773Z" fill="#555555"/>
<path d="M47.3588 66.0712H47.3395L45.5452 69.6201H49.1437L47.3588 66.0712ZM50.3097 71.9649L49.4721 70.2912H45.2157L44.3586 71.9649H43.6112L46.9103 65.411H47.7781L51.067 71.9649H50.3097Z" fill="#555555"/>
<path d="M59.2202 66.9557C58.602 66.221 57.7049 65.8472 56.5489 65.8472C54.724 65.8472 53.498 67.0621 53.498 68.7359C53.498 70.2908 54.7348 71.4844 56.5489 71.4844C57.7356 71.4844 58.602 71.1435 59.2202 70.3981L59.7686 70.7597C59.0807 71.6979 58.0344 72.1347 56.5489 72.1347C55.512 72.1347 54.595 71.8052 53.9465 71.2392C53.1991 70.5888 52.8107 69.7155 52.8107 68.6607C52.8107 67.6274 53.1892 66.7635 53.9565 66.1024C54.6151 65.5386 55.5321 65.1985 56.5489 65.1985C57.9442 65.1985 59.0906 65.7408 59.8094 66.7105L59.2202 66.9557Z" fill="#555555"/>
<path d="M68.498 71.9649V68.832H63.2149V71.9649H62.567V65.411H63.2149V68.1602H68.498V65.411H69.1464V71.9649H68.498Z" fill="#555555"/>
<path d="M82.053 66.9557C81.436 66.221 80.5383 65.8472 79.3823 65.8472C77.558 65.8472 76.3319 67.0621 76.3319 68.7359C76.3319 70.2908 77.5679 71.4844 79.3823 71.4844C80.5689 71.4844 81.436 71.1435 82.053 70.3981L82.6025 70.7597C81.9147 71.6979 80.8678 72.1347 79.3823 72.1347C78.3454 72.1347 77.4284 71.8052 76.7799 71.2392C76.0325 70.5888 75.644 69.7155 75.644 68.6607C75.644 67.6274 76.0225 66.7635 76.7899 66.1024C77.4483 65.5386 78.3655 65.1985 79.3823 65.1985C80.7782 65.1985 81.924 65.7408 82.642 66.7105L82.053 66.9557Z" fill="#555555"/>
<path d="M85.4004 71.9649V65.411H86.0483V71.2939H90.794V71.9649H85.4004Z" fill="#555555"/>
<path d="M95.7062 72.0707C93.6726 72.0707 92.4065 71.1232 92.4065 69.8225V65.411H93.055V69.5988C93.055 70.7922 93.9421 71.4103 95.7062 71.4103C97.4511 71.4103 98.3281 70.7922 98.3281 69.5988V65.411H98.976V69.8225C98.976 71.1332 97.7304 72.0707 95.7062 72.0707Z" fill="#555555"/>
<path d="M108.304 70.1741C108.304 69.4494 107.816 68.9805 107.008 68.9805H102.782V71.2939H106.989C107.846 71.2939 108.304 70.8995 108.304 70.1741ZM108.105 67.1269C108.105 66.5193 107.696 66.0812 107.048 66.0812H102.782V68.3094H106.919C107.597 68.3094 108.105 67.7986 108.105 67.1269ZM108.983 70.2063C108.983 71.2724 108.225 71.9649 106.999 71.9649H102.133V65.411H106.959C108.115 65.411 108.793 66.0812 108.793 67.1161C108.793 67.7986 108.504 68.2567 107.876 68.5968C108.623 68.9484 108.983 69.4609 108.983 70.2063Z" fill="#555555"/>
<path d="M9.13867 48.1863L6.91454 52.5357H11.3634L9.13867 48.1863ZM14.3497 58.2342L12.9263 55.5135H5.35082L3.92767 58.2342H0.300293L7.13514 45.0576H11.1436L17.9776 58.2342H14.3497Z" fill="#2469CF"/>
<path d="M34.6716 58.2342V49.5364H34.6115L29.02 56.6498L23.408 49.5364H23.3485V58.2342H19.8201V45.0576H23.9086L28.9993 51.6145L34.11 45.0576H38.1992V58.2342H34.6716Z" fill="#2469CF"/>
<path d="M54.5753 54.0564C54.5753 53.4353 54.0539 52.943 53.2725 52.943H45.7372V55.257H53.3127C54.034 55.257 54.5753 54.7424 54.5753 54.0564ZM53.9538 49.1496C53.9538 48.5288 53.4329 48.0363 52.6909 48.0363H45.7372V50.1787H52.7717C53.493 50.1787 53.9538 49.7507 53.9538 49.1496ZM58.1426 54.3137C58.1426 56.5847 56.2587 58.2342 53.2123 58.2342H42.2094V45.0576H52.8715C54.3541 45.0576 55.7172 45.6572 56.599 46.6435C57.1805 47.2867 57.5021 48.1436 57.5021 48.9789C57.5021 49.9429 57.1805 50.6712 56.4592 51.3572C57.6018 52.1498 58.1426 53.0925 58.1426 54.3137Z" fill="#2469CF"/>
<path d="M68.8651 58.6416C64.0352 58.6416 61.1292 56.5847 61.1292 53.7354V45.0576H64.6568V53.3283C64.6568 54.7632 66.1202 55.6635 68.845 55.6635C71.5713 55.6635 73.0546 54.7632 73.0546 53.3283V45.0576H76.5824V53.7354C76.5824 56.5847 73.6755 58.6416 68.8651 58.6416Z" fill="#2469CF"/>
<path d="M92.0561 49.4291C92.0561 48.5937 91.4151 48.0363 90.2927 48.0363H83.7995V50.9934H90.3134C91.3949 50.9934 92.0561 50.3503 92.0561 49.4291ZM92.0962 58.2342L89.1895 53.9713H83.7995V58.2342H80.2711V45.0576H90.633C93.5998 45.0576 95.5443 46.8793 95.5443 49.4934C95.5443 51.4423 94.6613 52.8143 92.9587 53.5211L96.1046 58.2342H92.0962Z" fill="#2469CF"/>
<path d="M105.266 48.1863L103.042 52.5357H107.491L105.266 48.1863ZM110.477 58.2342L109.054 55.5135H101.479L100.055 58.2342H96.4275L103.262 45.0576H107.271L114.105 58.2342H110.477Z" fill="#2469CF"/>
<path d="M127.292 58.2342L119.536 49.5364H119.476V58.2342H115.948V45.0576H120.036L127.833 53.7569H127.874V45.0576H131.398V58.2342H127.292Z" fill="#2469CF"/>
<path d="M51.0941 16.9676L67.9209 34.9544L58.2744 11.6007C55.6587 12.9492 53.2352 14.7473 51.0941 16.9676Z" fill="#EEB211"/>
<path d="M69.7128 8.71936C66.3128 8.77789 63.0157 9.50026 59.9452 10.8182L69.714 34.4691L69.7128 8.71936Z" fill="#EEB211"/>
<path d="M48.383 15.2882C54.3386 9.04373 62.2138 5.60491 70.556 5.60491C78.9002 5.60491 86.7754 9.04373 92.7316 15.2882C98.3999 21.2304 101.722 29.0792 102.175 37.5034H106.913C105.793 17.4327 90.4587 1.45415 71.5206 0.928223H69.5886C50.6513 1.45415 35.3172 17.4327 34.196 37.5034H38.939C39.3915 29.0792 42.7141 21.2304 48.383 15.2882Z" fill="#EEB211"/>
<path d="M44.6427 26.5226L66.0263 35.6842L49.8571 18.3994C47.6724 20.8104 45.9209 23.5548 44.6427 26.5226Z" fill="#EEB211"/>
<path d="M73.345 35.0924L90.1632 17.1151C87.9544 14.826 85.4484 12.9801 82.7374 11.6194L73.345 35.0924Z" fill="#EEB211"/>
<path d="M91.367 18.4062L75.351 35.5297L96.5527 26.446C95.2751 23.5095 93.533 20.7945 91.367 18.4062Z" fill="#EEB211"/>
<path d="M71.5437 34.6341L81.0578 10.8582C78.059 9.60822 74.8507 8.92161 71.5443 8.86499L71.5437 34.6341Z" fill="#EEB211"/>
<path d="M42.1765 37.5037H65.3675L43.9425 28.3242C42.9058 31.2314 42.3033 34.3222 42.1765 37.5037Z" fill="#EEB211"/>
<path d="M97.2608 28.2397L75.644 37.5022H99.0632C98.9328 34.2899 98.3172 31.1714 97.2608 28.2397Z" fill="#EEB211"/>
</svg>
