<svg width="128" height="70" viewBox="0 0 128 70" fill="none" xmlns="http://www.w3.org/2000/svg">
<path d="M31.4551 67.556C31.4551 66.8568 30.9837 66.4044 30.2052 66.4044H26.1271V68.6363H30.1858C31.0133 68.6363 31.4551 68.2558 31.4551 67.556ZM31.263 64.6161C31.263 64.0298 30.8683 63.6072 30.244 63.6072H26.1271V65.757H30.1182C30.7728 65.757 31.263 65.2641 31.263 64.6161ZM32.1092 67.587C32.1092 68.6156 31.3785 69.2838 30.1948 69.2838H25.5015V62.9606H30.1562C31.2726 62.9606 31.9267 63.6072 31.9267 64.6056C31.9267 65.2641 31.648 65.7061 31.0417 66.0342C31.7634 66.3734 32.1092 66.8679 32.1092 67.587Z" fill="#5F5F5F"/>
<path d="M34.9443 69.2838V62.9606H40.5614V63.6072H35.5694V65.613H39.0418V66.2611H35.5694V68.6363H40.7923V69.2838H34.9443Z" fill="#5F5F5F"/>
<path d="M45.925 63.5976H45.9064L44.1753 67.0215H47.6471L45.925 63.5976ZM48.772 69.2838L47.9639 67.669H43.8574L43.0304 69.2838H42.3093L45.4923 62.9606H46.3296L49.5027 69.2838H48.772Z" fill="#5F5F5F"/>
<path d="M57.3693 64.4513C56.7728 63.7425 55.9073 63.3819 54.792 63.3819C53.0313 63.3819 51.8484 64.554 51.8484 66.1688C51.8484 67.6691 53.0417 68.8207 54.792 68.8207C55.9368 68.8207 56.7728 68.4917 57.3693 67.7726L57.8983 68.1215C57.2346 69.0266 56.2252 69.448 54.792 69.448C53.7916 69.448 52.9068 69.1301 52.2812 68.5841C51.5601 67.9566 51.1853 67.114 51.1853 66.0963C51.1853 65.0994 51.5505 64.2659 52.2908 63.6281C52.9262 63.0841 53.811 62.756 54.792 62.756C56.1382 62.756 57.2442 63.2792 57.9377 64.2148L57.3693 64.4513Z" fill="#5F5F5F"/>
<path d="M66.3206 69.2838V66.2611H61.2235V69.2838H60.5984V62.9606H61.2235V65.613H66.3206V62.9606H66.9462V69.2838H66.3206Z" fill="#5F5F5F"/>
<path d="M79.3982 64.4513C78.8029 63.7425 77.9368 63.3819 76.8215 63.3819C75.0614 63.3819 73.8785 64.554 73.8785 66.1688C73.8785 67.6691 75.071 68.8207 76.8215 68.8207C77.9664 68.8207 78.8029 68.4917 79.3982 67.7726L79.9284 68.1215C79.2647 69.0266 78.2547 69.448 76.8215 69.448C75.8211 69.448 74.9364 69.1301 74.3107 68.5841C73.5896 67.9566 73.2148 67.114 73.2148 66.0963C73.2148 65.0994 73.58 64.2659 74.3203 63.6281C74.9556 63.0841 75.8405 62.756 76.8215 62.756C78.1683 62.756 79.2738 63.2792 79.9664 64.2148L79.3982 64.4513Z" fill="#5F5F5F"/>
<path d="M82.6277 69.2838V62.9606H83.2527V68.6363H87.8314V69.2838H82.6277Z" fill="#5F5F5F"/>
<path d="M92.57 69.3859C90.608 69.3859 89.3865 68.4717 89.3865 67.2168V62.9606H90.0121V67.001C90.0121 68.1523 90.8681 68.7487 92.57 68.7487C94.2535 68.7487 95.0996 68.1523 95.0996 67.001V62.9606H95.7247V67.2168C95.7247 68.4813 94.523 69.3859 92.57 69.3859Z" fill="#5F5F5F"/>
<path d="M104.725 67.556C104.725 66.8568 104.254 66.4044 103.475 66.4044H99.3971V68.6363H103.456C104.283 68.6363 104.725 68.2558 104.725 67.556ZM104.533 64.6161C104.533 64.0298 104.138 63.6072 103.513 63.6072H99.3971V65.757H103.388C104.043 65.757 104.533 65.2641 104.533 64.6161ZM105.38 67.587C105.38 68.6156 104.648 69.2838 103.466 69.2838H98.7715V62.9606H103.427C104.542 62.9606 105.197 63.6072 105.197 64.6056C105.197 65.2641 104.918 65.7061 104.312 66.0342C105.033 66.3734 105.38 66.8679 105.38 67.587Z" fill="#5F5F5F"/>
<path d="M9.05047 46.3432L6.90463 50.5394H11.1969L9.05047 46.3432ZM14.078 56.0374L12.7048 53.4124H5.39595L4.02289 56.0374H0.523193L7.11746 43.3246H10.9848L17.5783 56.0374H14.078Z" fill="#2469CF"/>
<path d="M33.6847 56.0374V47.6457H33.6267L28.2321 54.5088L22.8176 47.6457H22.7602V56.0374H19.356V43.3246H23.3005L28.2121 49.6507L33.1429 43.3246H37.0882V56.0374H33.6847Z" fill="#2469CF"/>
<path d="M52.888 52.0066C52.888 51.4074 52.3849 50.9325 51.631 50.9325H44.3609V53.165H51.6698C52.3657 53.165 52.888 52.6685 52.888 52.0066ZM52.2883 47.2726C52.2883 46.6736 51.7858 46.1984 51.0699 46.1984H44.3609V48.2654H51.1479C51.8438 48.2654 52.2883 47.8525 52.2883 47.2726ZM56.3297 52.2549C56.3297 54.4459 54.5121 56.0374 51.573 56.0374H40.9573V43.3246H51.2441C52.6746 43.3246 53.9896 43.903 54.8404 44.8546C55.4015 45.4752 55.7117 46.3019 55.7117 47.1079C55.7117 48.0379 55.4015 48.7406 54.7056 49.4024C55.808 50.1671 56.3297 51.0766 56.3297 52.2549Z" fill="#2469CF"/>
<path d="M66.6749 56.4304C62.0149 56.4304 59.2112 54.4459 59.2112 51.697V43.3246H62.6146V51.3041C62.6146 52.6886 64.0265 53.5572 66.6555 53.5572C69.2857 53.5572 70.7168 52.6886 70.7168 51.3041V43.3246H74.1205V51.697C74.1205 54.4459 71.316 56.4304 66.6749 56.4304Z" fill="#2469CF"/>
<path d="M89.0496 47.5422C89.0496 46.7362 88.4311 46.1984 87.3483 46.1984H81.0837V49.0515H87.3683C88.4117 49.0515 89.0496 48.4309 89.0496 47.5422ZM89.0883 56.0374L86.2839 51.9245H81.0837V56.0374H77.6794V43.3246H87.6766C90.5389 43.3246 92.4151 45.0821 92.4151 47.6042C92.4151 49.4846 91.5631 50.8082 89.9204 51.4902L92.9556 56.0374H89.0883Z" fill="#2469CF"/>
<path d="M101.795 46.3432L99.6481 50.5394H103.941L101.795 46.3432ZM106.822 56.0374L105.449 53.4124H98.1402L96.7671 56.0374H93.2668L99.8609 43.3246H103.729L110.322 56.0374H106.822Z" fill="#2469CF"/>
<path d="M123.045 56.0374L115.562 47.6457H115.504V56.0374H112.1V43.3246H116.044L123.567 51.7177H123.606V43.3246H127.006V56.0374H123.045Z" fill="#2469CF"/>
<path d="M49.5291 16.2235L65.7636 33.5772L56.4566 11.0455C53.9329 12.3466 51.5948 14.0814 49.5291 16.2235Z" fill="#EEB211"/>
<path d="M67.4919 8.26453C64.2116 8.321 61.0305 9.01794 58.0681 10.2894L67.493 33.1079L67.4919 8.26453Z" fill="#EEB211"/>
<path d="M46.9129 14.6023C52.6589 8.57766 60.2569 5.25988 68.3055 5.25988C76.356 5.25988 83.9539 8.57766 89.7005 14.6023C95.1693 20.3354 98.3741 27.9079 98.8115 36.0355H103.383C102.302 16.6714 87.5076 1.25521 69.2361 0.747803H67.3721C49.1014 1.25521 34.307 16.6714 33.2253 36.0355H37.8013C38.2379 27.9079 41.4435 20.3354 46.9129 14.6023Z" fill="#EEB211"/>
<path d="M43.3044 25.4402L63.9353 34.2793L48.3353 17.6029C46.2275 19.9291 44.5377 22.5768 43.3044 25.4402Z" fill="#EEB211"/>
<path d="M70.9966 33.7097L87.2228 16.3651C85.0918 14.1566 82.674 12.3756 80.0584 11.0629L70.9966 33.7097Z" fill="#EEB211"/>
<path d="M88.3844 17.6101L72.9321 34.1308L93.3876 25.3669C92.155 22.5337 90.4742 19.9143 88.3844 17.6101Z" fill="#EEB211"/>
<path d="M69.2595 33.266L78.4387 10.327C75.5455 9.121 72.4501 8.45855 69.2601 8.40393L69.2595 33.266Z" fill="#EEB211"/>
<path d="M40.9253 36.0356H63.3L42.6291 27.1792C41.6289 29.984 41.0477 32.9661 40.9253 36.0356Z" fill="#EEB211"/>
<path d="M94.0707 27.098L73.2148 36.0345H95.8097C95.6838 32.9352 95.0899 29.9265 94.0707 27.098Z" fill="#EEB211"/>
</svg>
