<svg width="127" height="39" viewBox="0 0 127 39" fill="none" xmlns="http://www.w3.org/2000/svg">
<path fill-rule="evenodd" clip-rule="evenodd" d="M17.9749 36.6412C17.9749 36.0412 19.12 35.6766 19.3323 34.8714C19.5143 34.917 23.2908 37.3172 19.1958 37.3172C18.6423 37.3172 17.9749 37.1729 17.9749 36.6336V36.6412ZM14.8506 36.5045C14.2743 36.5045 13.6069 36.1703 13.2202 35.9576C13.4098 35.2588 14.2894 34.8714 14.9416 34.5524C16.2535 33.9068 15.8061 34.0891 16.8147 33.2991C18.0735 32.3041 18.847 30.2533 19.1124 30.0254C19.4233 29.7596 19.1427 29.8507 19.7418 29.8431C20.2347 31.9547 21.9486 33.5346 23.7686 34.5068C24.2084 34.7423 25.3156 35.3348 25.581 35.6842C25.2928 36.0184 25.035 36.2235 24.5345 36.4058C24.125 36.5577 23.5486 36.6792 23.1391 36.7704C22.6614 36.0564 22.1837 35.5171 21.5087 35.0006C20.9779 34.598 20.1134 33.7777 19.7418 33.2308L17.5427 35.1069C16.9057 35.6614 15.7682 36.4969 14.8582 36.4969L14.8506 36.5045ZM5.62172 30.2533C5.62172 29.1367 8.20763 29.6912 8.50337 29.8127C9.13279 30.0786 9.3982 32.9725 8.47304 32.9725C8.01804 32.9725 7.79054 32.7978 7.49479 32.5851C6.92605 32.1826 5.62172 30.9901 5.62172 30.2457V30.2533ZM29.7821 32.2965L29.8428 30.4584C29.9717 29.8355 29.8049 30.0786 30.2068 29.8735C31.0713 29.4329 32.3149 29.6532 33.1719 29.8507C33.1491 30.9901 31.0561 32.775 30.6845 32.9573C30.1385 33.2156 29.7745 33.0029 29.7745 32.3041L29.7821 32.2965ZM10.5129 34.4689V30.5267C12.2495 30.1241 13.3112 30.3216 14.4183 29.1367C15.4269 28.0657 15.6696 26.144 15.6696 24.4046H18.5209C18.5209 27.3897 18.4451 29.5849 16.0488 31.9851C15.6848 32.3497 15.48 32.5775 15.025 32.8662C13.8344 33.6106 11.9538 34.4385 10.5205 34.4689H10.5129ZM24.489 25.4984C24.489 24.397 24.398 24.4122 25.1639 24.4122C26.4379 24.4122 27.31 24.754 27.9849 25.392C29.1451 26.4934 29.2361 27.648 29.2361 29.0304C28.6143 29.0304 27.1735 29.5849 25.5506 28.1037C25.0198 27.6176 24.489 26.5162 24.489 25.4984ZM10.6419 29.1671C8.20762 29.1671 9.31479 24.4122 14.3046 24.4122C14.3046 25.7187 14.0392 27.0631 13.5008 27.8151C13.0609 28.4303 11.658 29.1671 10.6419 29.1671ZM20.0072 24.4122H22.9951C23.0633 25.2325 23.6017 28.3316 24.1326 28.9848C24.9212 29.9722 26.8626 30.1925 28.2882 30.5267V34.4689C24.6634 34.165 21.7287 31.8787 20.5987 28.4379C20.0527 26.7897 20.2575 24.9211 20.0072 24.4046V24.4122ZM24.489 20.0599C26.5213 19.5814 28.6143 20.2954 30.093 21.5107C32.3301 23.3488 34.2563 24.6553 34.2563 28.2176L30.5935 28.3544C30.5935 26.0301 30.04 24.6705 28.0076 23.5995C27.3251 23.2349 25.3156 23.0526 24.4814 23.0526V20.0599H24.489ZM23.1316 19.9232V23.0526H20.2802C20.2802 22.0576 20.5912 21.4043 21.122 20.903C21.5239 20.5308 22.5325 20.0675 23.1316 19.9232ZM15.6696 20.0599C16.39 20.0751 17.3303 20.4853 17.7323 20.8498C18.1797 21.26 18.5058 22.2323 18.5209 23.0526H15.6696V20.0599ZM8.20762 27.2682V28.2176H4.40839C4.84822 26.3187 4.78756 24.6705 7.13838 22.8019C7.54029 22.4753 7.77538 22.2019 8.22279 21.8525C9.84562 20.5688 10.7784 19.9308 13.0913 19.9308C13.7738 19.9308 13.6979 20.0523 14.3122 20.0675V23.0602C12.9548 23.0602 10.9452 23.4552 10.0731 23.9793C8.92804 24.6705 8.20762 26.1212 8.20762 27.2758V27.2682ZM17.846 19.1104C18.9001 18.8294 18.8242 18.0926 19.4764 17.6141C19.666 18.4192 20.1817 18.9281 20.9703 19.1104C20.6291 19.5738 19.7646 19.6649 19.4764 20.7435H19.2034C18.9759 19.7789 18.2707 19.6953 17.846 19.1104ZM2.10307 20.6068H1.42815C1.42815 17.5457 1.19307 17.6141 2.10307 17.6141C2.9979 17.6141 3.48323 18.6699 3.86998 19.2472C3.33914 19.8624 2.83106 20.6068 2.10307 20.6068ZM37.1228 18.161V20.2042C37.1228 20.6068 37.5474 20.6675 36.9256 20.6751C36.008 20.6827 35.5985 19.9536 34.9464 18.9813C36.281 18.2749 35.7805 17.6217 36.8498 17.6217C37.4185 17.6217 37.1228 17.8344 37.1228 18.1686V18.161ZM20.2954 15.305H23.1467V18.2977C21.4481 18.2597 20.3409 16.9761 20.2954 15.305ZM15.6772 18.2977V15.305H18.5285C18.5133 16.1557 18.2252 16.9229 17.755 17.3862C17.2318 17.9027 16.6327 18.2749 15.6772 18.2977ZM33.5965 18.9737C33.5965 19.9004 34.9388 20.9638 35.8639 21.8677C36.4327 22.4145 36.8498 22.3766 36.8498 22.6424C36.8498 23.1893 36.19 24.6932 36.0383 25.3617C35.189 25.1338 33.2553 21.8829 31.5035 20.5232C31.0637 20.1814 30.0475 19.4067 29.9338 18.9737C30.6011 17.9711 31.6628 18.3737 33.9074 15.343L36.0459 12.8592C36.2355 15.1759 38.101 14.6442 35.0374 17.014C34.5065 17.4242 33.6041 18.2445 33.6041 18.9737H33.5965ZM1.83765 15.305C1.83765 14.7961 2.37607 13.5884 2.51256 12.9959C3.55148 13.0795 4.32497 14.7353 5.53072 16.0874C6.45588 17.128 7.55546 18.5028 9.02662 18.8446C9.00387 19.8548 7.43413 20.7739 6.75163 21.4575C6.38005 21.8297 6.28905 21.898 5.88713 22.2247C5.37905 22.6348 4.65864 23.364 4.27947 23.8729C3.83964 24.4578 3.43014 25.2933 2.52015 25.3693C2.34573 24.6249 1.84523 23.8729 1.84523 22.9235C1.84523 22.5057 2.50498 22.331 2.87656 22.0576L5.78097 19.2548L1.84523 15.3126L1.83765 15.305ZM24.3676 18.4344C24.6861 17.7736 24.5041 16.3456 24.5041 15.4417L26.7412 15.0999C28.2427 14.8417 29.4105 14.31 30.0324 12.9579C30.6011 11.7199 30.6163 11.4692 30.6163 10.1476H34.279C34.279 12.4642 34.3094 12.6693 32.4135 14.8037C31.8296 15.4645 31.458 15.981 30.8135 16.4595C28.5536 18.1458 27.8711 18.442 24.3752 18.442L24.3676 18.4344ZM4.55247 11.3629V10.14H7.67679C8.19246 10.14 7.72229 10.1779 8.08629 10.0032C8.11663 11.5224 8.60954 13.2542 9.74704 14.1809C10.8314 15.0619 12.5301 15.305 14.4638 15.305C14.1833 15.8063 14.3274 17.7508 14.3274 18.4344C10.0883 18.4344 8.52612 17.4698 5.89472 14.2416C5.37147 13.6036 4.56006 12.4718 4.56006 11.3629H4.55247ZM25.8616 13.9454C24.2842 13.9454 24.3146 14.1277 24.5572 12.6389C24.944 10.2691 25.8767 9.31962 28.4399 9.31962C30.2295 9.31962 28.7205 12.3579 28.273 12.8288C27.7953 13.3377 26.8019 13.9454 25.854 13.9454H25.8616ZM9.43612 10.4134C9.43612 8.45372 11.8552 9.41077 12.7879 9.91209C13.4325 10.2615 13.6979 10.6185 13.933 11.3477C14.0695 11.7578 14.7975 13.953 13.9103 13.953C12.7121 13.953 11.4457 13.6947 10.7025 13.0871C10.2248 12.6921 9.42854 11.2261 9.42854 10.421L9.43612 10.4134ZM33.187 8.50689C31.7689 9.1905 30.4646 8.52968 29.7973 8.37017C29.7973 5.70409 29.7063 3.82036 32.2619 6.98776C32.5955 7.39792 33.1415 7.90683 33.1946 8.50689H33.187ZM10.5205 4.01785C12.204 4.01785 12.9775 4.31408 14.2288 5.05846C19.2489 8.02836 18.3617 13.3225 18.665 13.9378H15.6772C15.6772 11.0362 14.8354 7.95241 11.4684 7.95241H10.5205V4.01026V4.01785ZM23.1467 12.8516V13.9378H20.1589C20.1589 9.98804 21.1827 7.27639 24.58 5.04327C25.8464 4.20774 26.764 4.01026 28.3034 4.01026V7.81568C27.0673 8.10432 25.8464 7.90683 24.5648 9.09935C23.7913 9.82094 23.1467 11.3932 23.1467 12.844V12.8516ZM5.63689 8.63601C5.63689 7.58022 6.4938 6.74469 7.2218 6.14464C8.22279 5.31671 9.1707 4.74704 9.1707 6.87382C9.1707 7.81568 8.75362 8.35498 8.09388 8.64361C6.97913 9.12973 6.75163 8.73476 5.64447 8.63601H5.63689ZM19.4764 8.77274H19.2034C19.0972 8.317 18.9228 8.14989 18.6877 7.7929L17.5275 5.96994C17.4668 5.88638 17.3 5.65851 17.2318 5.59015C17.1104 5.46862 16.9436 5.3395 16.7995 5.20277C16.1398 4.57993 15.9123 4.35966 15.1312 3.88113C14.6155 3.56971 13.6828 2.92408 13.0989 2.78735V2.51391C13.6904 2.37719 13.8496 2.12653 14.4638 1.97462C14.9947 1.84549 15.5634 1.8227 16.0867 1.70117C16.3142 2.54429 18.7105 4.95971 19.4764 4.95971C20.9779 4.95971 22.2367 1.34418 23.6624 1.8379C23.9809 1.94423 24.1174 2.05057 24.5572 2.1873C25.035 2.33161 25.2094 2.43036 25.5886 2.51391C25.0122 3.60009 23.7913 3.28107 22.0244 5.05846C21.1599 5.92436 19.7873 7.45869 19.484 8.76514L19.4764 8.77274ZM17.846 1.70117C17.846 1.00997 19.0897 1.29101 20.9703 1.29101C20.9703 2.10374 20.7504 2.33921 20.2802 2.77216C19.7949 3.21271 19.7494 3.08358 19.6129 3.60009C19.1579 3.47856 17.846 2.20249 17.846 1.69358V1.70117ZM0.472656 18.556C0.472656 22.1107 0.768405 24.473 2.28507 27.4809C3.98373 30.8533 5.65205 32.7447 8.50337 34.8487C9.41337 35.5171 10.3385 36.026 11.4229 36.5425C16.4583 38.9731 22.2974 38.7452 27.3479 36.4969C38.6091 31.4762 42.2339 15.5329 32.8154 6.15223C28.8645 2.21768 24.5269 0.478271 18.665 0.478271C16.1398 0.478271 13.1368 1.32899 11.4229 2.20249C7.1308 4.37485 4.46906 6.93459 2.28507 11.2641C1.37507 13.0643 0.472656 15.9127 0.472656 18.556Z" fill="#069796"/>
<path d="M47.1529 1.09839H45.6123L54.5309 25.036H56.2381L65.19 1.09839H63.7161L55.4303 23.7626H55.3637L47.1445 1.09839H47.1529ZM66.8388 25.036H68.3128V1.09839H66.8388V25.036ZM72.5431 25.036H87.6073V23.7626H74.0254V1.09839H72.5514V25.036H72.5431ZM89.3144 25.036H104.379V23.7626H90.7967V1.09839H89.3228V25.036H89.3144ZM103.571 25.036H105.145L108.201 17.362H119.676L122.691 25.036H124.264L114.805 1.09839H113.197L103.571 25.036ZM108.667 16.0885L113.997 2.54663H114.063L119.193 16.0885H108.659H108.667Z" fill="#875C32"/>
<path d="M50.2804 36.5077H51.0586V31.3006H52.9999V30.6454H48.3477V31.3006H50.2889V36.5077H50.2804ZM59.029 30.6368H58.2508V34.3869C58.2508 35.43 57.7206 35.9904 56.7371 35.9904C55.7023 35.9904 55.1208 35.43 55.1208 34.3869V30.6368H54.3426V34.3869C54.3426 35.9473 55.232 36.6456 56.7286 36.6456C58.1909 36.6456 59.0205 35.8697 59.0205 34.3869V30.6368H59.029ZM61.0131 36.5077H61.7913V33.9989H63.6813C64.4339 33.9989 64.5621 34.4903 64.6477 35.0593C64.7588 35.6369 64.6391 36.2663 64.8615 36.5077H65.7252C65.4002 36.1111 65.4259 35.4559 65.3831 34.8869C65.3147 34.3179 65.1864 33.8093 64.5108 33.68V33.6627C65.2206 33.4644 65.5199 32.8868 65.5199 32.1713C65.5199 31.223 64.8529 30.6368 63.7497 30.6368H61.0131V36.5077ZM61.7913 33.3438V31.3006H63.7155C64.4424 31.3006 64.7503 31.723 64.7503 32.3006C64.7503 33.1541 64.126 33.3438 63.4076 33.3438H61.7913ZM67.3501 36.5077H68.1283V34.4559L69.0947 33.542L71.1984 36.5077H72.1734L69.6249 33.0075L72.0793 30.6454H71.0787L68.1283 33.5679V30.6454H67.3501V36.5163V36.5077ZM73.5673 36.5077H74.3456V30.6368H73.5673V36.5077ZM80.4944 32.361C80.4516 31.0678 79.5451 30.5074 78.3479 30.5074C77.2789 30.5074 76.2355 31.0419 76.2355 32.223C76.2355 34.3783 79.9642 33.3179 79.9642 34.93C79.9642 35.7749 79.186 35.999 78.4847 35.999C77.6038 35.999 76.7914 35.568 76.7914 34.5852H76.0559C76.0559 36.0076 77.1591 36.6542 78.459 36.6542C79.5195 36.6542 80.7339 36.1542 80.7339 34.9042C80.7339 32.5937 77.0052 33.611 77.0052 32.1713C77.0052 31.404 77.6466 31.1713 78.3051 31.1713C79.109 31.1713 79.6563 31.5247 79.7504 32.3696H80.4858L80.4944 32.361ZM82.4271 36.5077H83.2054V33.8179H86.267V36.5077H87.0452V30.6368H86.267V33.1627H83.2054V30.6368H82.4271V36.5077ZM91.0389 33.5938C91.0389 35.3007 91.9283 36.6542 93.7243 36.6542C95.2037 36.6542 96.0846 35.7749 96.2385 34.3007H95.4603C95.3919 35.2662 94.7932 35.9904 93.7841 35.9904C92.3901 35.9904 91.8001 34.8697 91.8001 33.5334C91.8001 32.3092 92.3901 31.1626 93.7756 31.1626C94.588 31.1626 95.2379 31.5851 95.409 32.4127H96.1872C96.0162 31.1626 95.007 30.5074 93.7927 30.5074C91.9968 30.5074 91.0389 31.8868 91.0389 33.5938ZM102.601 30.6454H101.823V34.3955C101.823 35.4387 101.293 35.999 100.309 35.999C99.2745 35.999 98.6929 35.4387 98.6929 34.3955V30.6454H97.9147V34.3955C97.9147 35.9559 98.8041 36.6542 100.301 36.6542C101.763 36.6542 102.593 35.8783 102.593 34.3955V30.6454H102.601ZM104.619 36.5163H105.398V30.6454H104.619V36.5163ZM111.546 32.3696C111.504 31.0764 110.597 30.5161 109.4 30.5161C108.331 30.5161 107.288 31.0506 107.288 32.2316C107.288 34.3869 111.016 33.3265 111.016 34.9386C111.016 35.7835 110.238 36.0076 109.537 36.0076C108.656 36.0076 107.844 35.5766 107.844 34.5938H107.108C107.108 36.0163 108.211 36.6628 109.511 36.6628C110.572 36.6628 111.786 36.1628 111.786 34.9128C111.786 32.6023 108.057 33.6196 108.057 32.1799C108.057 31.4126 108.699 31.1799 109.357 31.1799C110.161 31.1799 110.708 31.5333 110.802 32.3782H111.538L111.546 32.3696ZM113.505 36.5163H114.283V30.6454H113.505V36.5163ZM116.318 36.5163H117.054V31.8092H117.071L120.116 36.5163H120.962V30.6454H120.227V35.4042H120.21L117.148 30.6454H116.327V36.5163H116.318ZM122.955 36.5163H127V35.8611H123.733V33.8352H126.752V33.18H123.733V31.3178H126.974V30.6626H122.955V36.5335V36.5163Z" fill="#875C32"/>
</svg>
