<svg width="129" height="60" viewBox="0 0 129 60" fill="none" xmlns="http://www.w3.org/2000/svg">
<path d="M49.1365 58.5648H49.3852V57.7979H49.3956C49.4474 57.9741 49.7998 58.6374 50.691 58.6374C51.1678 58.6374 52.173 58.399 52.173 56.7719C52.173 55.8184 51.6963 55.0619 50.691 55.0619C50.1314 55.0619 49.5925 55.3313 49.3956 55.8703H49.3852V53.8182H49.1365V58.5648ZM50.7014 58.4301C49.7687 58.4301 49.3956 57.6217 49.3956 56.7823C49.3956 55.9324 49.8101 55.2899 50.7014 55.2899C51.5201 55.2899 51.9347 56.0257 51.9347 56.7823C51.9347 57.5699 51.603 58.4301 50.7014 58.4301ZM53.7898 58.5545C53.6343 59.0105 53.5411 59.2592 53.4374 59.3628C53.2612 59.539 53.0954 59.5805 52.7223 59.5805V59.7981C53.1161 59.7981 53.3441 59.7877 53.5203 59.6426C53.6758 59.5286 53.7794 59.2799 53.9141 58.9379L55.3754 55.1552H55.0852L53.9141 58.2746L52.6394 55.1552H52.3389L53.7691 58.5545H53.7898ZM57.1165 58.5752H57.4274L58.0285 57.0517H60.2982L60.8993 58.5752H61.2102L59.3344 53.8286H59.0131L57.1062 58.5752H57.1165ZM58.1322 56.803L59.1893 54.1188H59.1996L60.2153 56.803H58.1322ZM61.5211 58.5752H61.7698V56.5543C61.7698 55.6733 62.3709 55.3002 62.858 55.3002C63.0653 55.3002 63.6664 55.3832 63.6664 56.2433V58.5855H63.9151V56.5646C63.9151 55.7355 64.3711 55.3106 64.9826 55.3106C65.1795 55.3106 65.8013 55.3728 65.8013 56.2537V58.5959H66.0501V56.2641C66.0501 55.4661 65.5941 55.1033 64.9826 55.1033C64.423 55.1033 64.1017 55.3521 63.8944 55.8288H63.884C63.8115 55.4764 63.5006 55.1033 62.858 55.1033C62.3502 55.1033 61.8942 55.4453 61.7906 55.8806H61.7802V55.1862H61.5315V58.6063L61.5211 58.5752ZM66.8688 58.5752H67.1175V57.8083H67.1279C67.1797 57.9844 67.5321 58.6477 68.4233 58.6477C68.9001 58.6477 69.9054 58.4094 69.9054 56.7823C69.9054 55.8288 69.4286 55.0722 68.4233 55.0722C67.8637 55.0722 67.3248 55.3417 67.1279 55.8806H67.1175V53.8286H66.8688V58.5752ZM68.4337 58.4405C67.501 58.4405 67.1279 57.6321 67.1279 56.7926C67.1279 55.9428 67.5424 55.3002 68.4337 55.3002C69.2524 55.3002 69.667 56.0361 69.667 56.7926C69.667 57.5803 69.3354 58.4405 68.4337 58.4405ZM73.2114 55.1655H72.9627V57.0103C72.9627 57.8394 72.5066 58.4405 71.7294 58.4405C70.7966 58.4405 70.7552 57.6735 70.7552 57.3212V55.1655H70.5065V57.2797C70.5065 57.6943 70.5168 58.6581 71.719 58.6581C72.2579 58.6581 72.7657 58.3575 72.9419 57.8497H72.9523V58.5855H73.201V55.1655H73.2114ZM74.2063 55.1655H73.9576V58.5855H74.2063V56.7201C74.227 56.2123 74.341 56.005 74.5898 55.7355C74.9007 55.435 75.2634 55.3728 75.5329 55.4039V55.1552C74.911 55.1344 74.3514 55.4764 74.227 55.9324H74.2063V55.1759V55.1655ZM77.9372 58.0881C77.9372 58.3679 77.9994 58.5855 78.3932 58.5855C78.4658 58.5855 78.528 58.5752 78.6005 58.5545V58.3472C78.5176 58.3575 78.4554 58.3679 78.414 58.3679C78.186 58.3679 78.186 58.1503 78.186 57.9534V55.9635C78.186 55.435 77.8232 55.0826 77.0045 55.0826C76.1858 55.0826 75.7194 55.4661 75.6883 56.2123H75.937C75.9681 55.6008 76.3827 55.3002 76.9838 55.3002C77.6678 55.3002 77.9372 55.6112 77.9372 55.9739C77.9372 56.4506 77.8854 56.5957 77.1496 56.6475L76.7558 56.6786C76.2065 56.7304 75.5018 56.8859 75.5018 57.6943C75.5018 58.3472 75.9163 58.6581 76.6418 58.6581C77.2947 58.6581 77.7507 58.3057 77.9165 57.9015H77.9269V58.0777L77.9372 58.0881ZM77.9372 57.2797C77.9372 57.4559 77.8129 58.4405 76.6625 58.4405C76.1132 58.4405 75.7609 58.1917 75.7609 57.6943C75.7609 57.0517 76.3101 56.9377 76.8076 56.8859L77.2325 56.8444C77.533 56.8133 77.8129 56.7823 77.9372 56.6268V57.2694V57.2797ZM78.9943 58.5855H79.2431V56.7408C79.2431 55.9117 79.6991 55.3106 80.4763 55.3106C81.4091 55.3106 81.4505 56.0775 81.4505 56.4299V58.5855H81.6993V56.4713C81.6993 56.0568 81.6889 55.093 80.4867 55.093C79.9478 55.093 79.44 55.3935 79.2638 55.9013H79.2534V55.1655H79.0047V58.5855H78.9943Z" fill="#875C32"/>
<path fill-rule="evenodd" clip-rule="evenodd" d="M42.9486 19.585C44.0368 19.5539 44.8866 19.7094 46.0577 19.6575C50.0684 19.4917 53.105 18.3414 54.0688 18.2792C52.9081 18.9528 50.3794 19.5539 48.8559 19.7923C46.835 20.1032 44.7519 20.0099 42.9486 19.585ZM92.5493 16.3826C92.5597 14.9006 91.7202 14.4446 91.3057 13.6777C92.9017 14.5379 93.2229 15.8437 93.2748 18.1963C94.0002 14.7866 93.2126 15.4395 92.5597 13.6466C93.8966 14.1026 94.2386 16.1857 94.3526 17.9475C94.6013 17.1495 94.5391 16.7661 94.5495 15.8022L94.8293 16.4966C94.8708 16.6832 94.8811 16.8179 94.8708 17.0044C94.8708 17.2117 94.7879 17.7817 94.7361 18.0615C94.4977 19.3155 93.6893 20.7457 92.8499 21.3779C92.228 21.8443 91.9897 21.9894 91.0777 22.2277C91.2746 21.9376 91.1191 22.1656 91.3471 21.9479L91.9689 21.2432C91.3678 21.4919 90.8808 21.8236 90.2382 22.0619C88.4142 22.7563 86.0409 22.9014 84.1236 22.5801C86.1238 22.5698 88.9013 22.4558 90.6113 21.4919C91.3989 21.0463 91.7202 20.8286 91.9586 20.2379C90.8186 20.8701 90.8497 21.1706 89.2951 21.5956C86.9322 22.2381 85.5849 22.1863 83.3567 21.9272C85.5331 21.8443 90.7253 21.9583 91.8964 19.3674C91.4197 19.585 90.9015 20.1239 90.3004 20.383C91.1191 19.9063 92.1555 18.6419 92.114 17.1599C92.0933 16.4655 91.7409 15.6882 91.3989 15.1908C90.6942 14.1751 90.518 14.4653 90.2175 13.8435C92.0518 14.6311 92.0829 16.1961 92.3317 17.4915C92.3835 17.7506 92.3731 17.6884 92.4353 17.9061C92.4457 17.9475 92.4768 18.0719 92.4871 18.0408C92.4975 18.0201 92.5182 18.1341 92.5493 18.1755L92.5597 16.3515L92.5493 16.3826ZM64.7746 15.3152C65.2824 14.7141 66.7022 14.2581 67.5002 13.802L75.729 9.44929C77.5945 8.39219 79.3667 7.52164 81.1078 6.50599C90.0206 1.28268 93.1608 7.59418 86.9736 10.9417C83.1909 12.9937 90.9948 13.9782 91.0258 17.3257C91.0466 19.4606 88.0307 20.4763 85.8025 20.4763C80.4963 20.4763 74.361 18.6523 69.376 16.9319C68.0288 16.4655 66.1218 15.6468 64.7642 15.3048L64.7746 15.3152ZM40.8551 3.29324C43.7259 2.35014 44.8348 2.87869 46.949 2.90979C46.4411 3.03415 42.3786 2.59887 40.8344 3.95652C42.0677 3.74925 42.6688 3.41761 44.1093 3.45906C43.6326 3.75961 42.5133 3.81143 41.4562 4.2467C40.9069 4.47471 39.9949 5.02398 39.3835 5.33489C38.0984 5.98781 36.8651 7.076 36.0567 8.45437C34.44 11.2111 35.4349 15.4292 37.8185 17.6988C40.4198 20.1757 44.1611 20.8286 47.8299 20.4037C50.9183 20.0514 54.8254 18.8284 57.3438 17.2221C56.5976 17.2843 56.2659 17.6781 55.7789 17.5123C57.1572 17.2013 58.2765 16.1339 59.1367 15.8437C57.9138 15.9059 53.0739 19.2948 44.8762 18.9943C48.5657 18.8906 51.1255 18.5486 54.0896 17.533C57.8827 16.2375 56.4525 16.2064 58.3076 15.4499C60.6394 14.5068 64.0284 12.5895 66.3187 11.3562C67.0131 10.9831 67.4588 10.6515 68.0184 10.3717C69.262 9.73947 67.438 11.0557 71.3037 8.97256C72.1328 8.52692 74.1848 7.27291 74.8584 7.06563L71.7701 9.11765C71.2726 9.44929 69.034 10.6826 68.92 11.1178C68.9304 11.1075 75.0554 7.73928 75.1279 7.71855C74.8066 8.1331 74.3817 8.29892 73.5215 8.82747C72.9308 9.1902 72.4852 9.47002 71.8737 9.86384C70.713 10.61 69.718 11.0971 68.6299 11.9573L63.3858 14.6933C62.8262 14.797 62.0489 14.113 61.5929 14.3513L62.7951 14.9524C60.598 16.3722 54.6285 18.8803 52.0583 19.7612C47.5086 21.3054 43.9435 21.8339 39.3213 19.9788C31.2065 16.7039 31.4863 8.77565 37.0931 4.65089C37.5491 4.30889 37.746 4.2467 38.2745 3.93579C39.0311 3.49015 40.0571 3.0756 41.0002 2.83724C41.1971 3.23106 41.1349 2.69215 40.9795 3.15851C40.8447 3.54197 40.8551 3.06524 40.8447 3.31397L40.8551 3.29324ZM85.1807 1.76978C87.5644 1.02359 92.0104 2.18433 93.5235 5.20017C95.1921 8.53728 91.8757 11.7086 88.5385 11.3044C89.9895 10.4235 92.0726 7.73928 90.8911 5.34526C90.7253 5.01362 90.6113 4.93071 90.3937 4.57834C89.9066 3.7907 89.8962 3.49015 88.8287 2.68178C87.3778 1.57287 85.7507 2.13251 85.1807 1.78014V1.76978ZM62.992 11.2111C62.6085 10.2162 61.5514 9.06583 60.9296 8.41292C57.3541 4.72344 48.7004 1.18941 43.5289 1.31377C39.4145 1.41741 36.0774 3.41761 33.87 6.39199C27.6206 14.8177 37.6631 27.6687 55.9965 19.4088L62.7122 16.2168C64.3807 15.2115 64.5258 15.7608 66.0389 16.4966C69.0859 17.9786 73.0448 20.0617 75.9881 21.3365C80.5067 23.2952 85.9891 26.083 91.43 23.5543C93.4199 22.6319 95.503 20.7561 95.8139 18.0719C96.1041 15.6468 95.3579 13.2528 93.4199 11.9159L92.7566 11.3873C92.7359 11.3666 92.6944 11.3251 92.6633 11.2837C94.0831 10.4442 95.6584 8.22637 94.8604 5.59399C94.2386 3.55234 92.57 2.07032 90.6942 1.27232C84.6003 -1.31861 77.5945 3.52124 72.3712 6.53709C63.8211 11.4702 51.3639 19.699 41.6324 16.9941C36.3158 15.5224 34.4711 11.294 38.2745 7.48018C41.4562 4.29852 46.9075 4.55762 51.4779 5.9049C55.385 7.06563 59.6652 9.95711 63.0024 11.18L62.992 11.2111Z" fill="#875C32"/>
<path fill-rule="evenodd" clip-rule="evenodd" d="M76.9403 41.2856C77.4067 41.866 77.728 42.9646 78.3498 43.3584C79.1167 43.6693 80.35 43.348 81.2206 43.5242C81.9149 43.6693 82.2777 44.5917 81.9771 45.3897C81.6662 46.2084 80.7024 46.0633 79.6867 46.0633C78.7955 46.0633 77.8109 46.1151 76.9093 46.0115L76.9403 41.2753V41.2856ZM76.9611 37.5651C77.8938 37.4511 79.1789 37.534 80.1531 37.534C81.3138 37.5236 82.2155 37.42 82.2569 38.7258C82.2984 40.0731 81.2102 39.9902 80.1531 39.9902C79.1996 39.9902 77.8213 40.0835 76.8989 39.928L76.9611 37.5754V37.5651ZM73.054 49.6595C74.9091 49.7632 76.9093 49.6803 78.7333 49.6803C80.4536 49.6803 82.5989 49.9601 83.9773 49.3072C86.5682 48.0739 86.247 44.4984 85.6251 43.1718C85.2935 42.4775 84.6406 42.0111 84.2571 41.5344C85.5319 40.4565 85.9464 40.0835 85.8946 37.7516C85.8531 35.9276 85.0551 34.8498 83.7597 34.3005C82.2984 33.6787 75.1474 33.803 73.085 33.9689L73.054 49.6492V49.6595Z" fill="#B98741"/>
<path fill-rule="evenodd" clip-rule="evenodd" d="M102.59 47.6569L102.559 49.6468L106.301 49.6364L106.321 42.216C106.746 42.3922 109.845 47.0144 110.643 48.1129C111.928 49.8851 110.995 49.6882 115.193 49.6675L116.094 49.6571C115.991 49.1389 113.638 45.6982 113.327 45.2629C112.291 43.812 111.4 42.4751 110.363 40.8894C111.13 39.2727 115.504 35.3759 115.763 33.925C114.654 33.9043 112.923 33.8214 111.866 33.9043C110.975 33.9768 110.912 34.3914 109.814 35.6868L107.171 38.7027C106.86 39.0965 106.829 39.3038 106.321 39.5318L106.28 33.925H103.046C102.601 34.0287 102.621 33.8939 102.539 34.5883L102.549 47.6569H102.59Z" fill="#B98741"/>
<path fill-rule="evenodd" clip-rule="evenodd" d="M21.7426 38.9533L23.4423 43.2439L20.0533 43.2128L21.7426 38.9533ZM13.5449 49.6486C14.4362 49.7212 16.7266 49.8456 17.421 49.5761C17.452 49.545 17.4935 49.4621 17.5039 49.4828L17.7733 49.0786C17.8977 48.8196 17.908 48.6745 18.022 48.3843C18.1671 47.9594 18.364 47.493 18.561 47.037C18.8926 46.2701 19.359 45.3063 19.5766 44.6015C20.1155 45.2855 20.7373 46.1146 21.2141 46.8608L25.0072 46.8919C25.4321 47.7003 25.6912 49.0165 26.1679 49.6279L29.9714 49.6797C29.9092 48.9025 24.5097 35.7509 23.7946 33.9476L19.6284 33.9373C19.2968 35.7405 13.6071 48.4465 13.576 49.659L13.5449 49.6486Z" fill="#B98741"/>
<path fill-rule="evenodd" clip-rule="evenodd" d="M30.201 49.6588L33.6832 49.6796L33.8491 48.7779C33.932 46.9021 33.7558 44.2282 33.8594 42.0622C34.2222 42.3317 36.1291 45.1713 36.5747 45.8346C37.1033 46.6223 37.4764 47.1094 37.922 47.783C38.2433 48.2701 38.8444 49.2132 39.29 49.6692L43.5288 49.6796C43.4977 48.7986 38.5438 41.855 37.9324 40.8911C38.2951 40.2382 38.7615 39.8237 39.2278 39.264C39.7149 38.6733 40.0984 38.1551 40.6269 37.5229C41.1866 36.8596 41.6219 36.3518 42.0882 35.8336C42.6997 35.1393 43.1764 34.7144 43.4666 33.9267C40.4818 34.02 39.4558 33.222 38.264 34.6833C38.0049 35.0045 37.9324 35.0667 37.6836 35.3673L34.0149 39.5853L33.932 33.9163L30.2632 33.8956L30.1907 49.6588H30.201Z" fill="#B98741"/>
<path fill-rule="evenodd" clip-rule="evenodd" d="M92.6927 43.2439C92.7445 41.9588 94.1954 39.772 94.1954 38.9429C94.6411 40.3524 95.5842 41.6893 95.8847 43.2542L92.6927 43.2439ZM86.0288 49.6279L89.9774 49.6694C90.5681 48.4568 91.4801 45.2855 92.0916 44.5393C92.5579 45.0264 93.1901 46.3944 93.6461 46.7261C94.1747 47.0992 96.5791 46.8712 97.4496 46.8919L98.5275 49.6072L102.269 49.659C102.175 48.0526 97.0662 36.4971 96.2474 33.9373L92.1019 34.1445C92.0812 34.1756 91.9983 34.3104 91.9776 34.3518L89.0239 41.7515C88.5783 42.819 86.0392 48.8403 86.0288 49.6279Z" fill="#B98741"/>
<path fill-rule="evenodd" clip-rule="evenodd" d="M13.1416 49.6342L13.1831 46.1623C8.11521 45.8307 4.44646 47.6236 4.30137 42.4728C4.11482 35.7157 7.74212 37.7366 11.7943 37.3843C12.0638 36.9594 13.0483 34.4306 13.1209 33.9124C7.73175 33.9642 0.404609 32.42 0.425337 41.8407C0.435701 47.8413 3.13027 49.6756 8.02194 49.6653C9.49359 49.6653 11.7736 49.8 13.1416 49.6238V49.6342Z" fill="#B98741"/>
<path fill-rule="evenodd" clip-rule="evenodd" d="M126.469 37.5438C126.946 37.0256 127.91 34.9011 128.013 33.958L116.613 33.9373C116.51 38.3315 116.064 37.5542 119.764 37.5542C122.002 37.5542 124.241 37.5646 126.469 37.5542V37.5438Z" fill="#B98741"/>
<path fill-rule="evenodd" clip-rule="evenodd" d="M44.2234 37.4993L54.2244 37.5407C54.4938 36.8049 54.6182 36.4318 54.9291 35.7789C55.1882 35.2296 55.6338 34.5145 55.5717 33.9134L44.2648 33.9031L44.2338 37.5096L44.2234 37.4993Z" fill="#B98741"/>
<path fill-rule="evenodd" clip-rule="evenodd" d="M116.614 49.6548L127.423 49.6859L127.464 46.1519L116.686 46.1622L116.614 49.6548Z" fill="#B98741"/>
<path fill-rule="evenodd" clip-rule="evenodd" d="M44.2119 49.6341L54.9487 49.6755L54.9694 46.1726L44.2741 46.1519L44.2119 49.6341Z" fill="#B98741"/>
<path fill-rule="evenodd" clip-rule="evenodd" d="M116.602 43.3911L126.593 43.3807L126.645 39.9089L116.696 39.8467L116.602 43.3911Z" fill="#B98741"/>
<path fill-rule="evenodd" clip-rule="evenodd" d="M44.2119 43.3393L54.1404 43.3807L54.1611 39.8985L44.2534 39.8467L44.2119 43.3393Z" fill="#B98741"/>
<path fill-rule="evenodd" clip-rule="evenodd" d="M63.6969 39.0011C59.624 40.0168 61.2096 45.5303 64.982 44.7322C68.599 43.9653 67.4071 38.0787 63.6969 39.0011Z" fill="#875C32"/>
<path fill-rule="evenodd" clip-rule="evenodd" d="M0.799072 56.4589C1.06853 56.7076 0.830163 56.7076 2.04272 56.6869C7.54585 56.6143 43.2903 56.8942 44.2645 56.5833L44.4925 56.4589C43.6945 56.0443 25.2678 56.3138 22.6354 56.3138C19.9719 56.3138 1.63853 55.9822 0.799072 56.4589Z" fill="#875C32"/>
<path fill-rule="evenodd" clip-rule="evenodd" d="M85.9268 56.4777C86.1444 56.6436 85.9579 56.5606 86.3102 56.6539L127.827 56.6954C127.62 56.2394 127.827 56.4466 127.319 56.3326L86.0615 56.4363C86.0408 56.3948 85.9786 56.457 85.9371 56.4777H85.9268Z" fill="#875C32"/>
</svg>
