<svg width="119" height="48" viewBox="0 0 119 48" fill="none" xmlns="http://www.w3.org/2000/svg">
<path fill-rule="evenodd" clip-rule="evenodd" d="M73.6849 16.3002C72.984 15.8333 72.934 16.0568 72.2307 16.6057C71.0094 17.5588 69.7268 18.9366 68.8259 20.2412C67.5756 22.0517 66.3558 24.4391 66.3682 27.2338C66.3959 33.4949 72.9919 36.9622 79.9648 34.0162C84.283 32.1918 90.0906 27.1465 91.8218 23.2569C93.2533 20.0407 93.0861 16.9202 90.9575 14.4846C89.215 12.4908 86.985 11.3792 83.7993 10.3362C81.3977 9.54997 73.715 6.89692 71.9628 5.21467C70.8131 4.11093 70.6493 2.94997 71.6441 1.70754C71.667 1.67887 71.8038 1.50023 71.8232 1.47049L71.9973 1.15842C71.6198 0.974767 71.5177 0.78897 71.0482 0.690674C70.6116 1.02553 70.182 1.51721 69.7299 1.92154C68.5431 2.98281 66.5855 4.16182 66.2645 6.13627C65.8024 8.97924 69.0505 10.9188 70.7837 11.9228C74.8653 14.2872 80.592 14.8717 84.0549 19.2522C88.232 24.5365 84.3358 31.8187 78.0472 29.7821C73.7026 28.3749 70.9656 22.674 72.892 18.148C73.1229 17.6055 73.6727 16.7812 73.685 16.3002H73.6849Z" fill="#B18046"/>
<path fill-rule="evenodd" clip-rule="evenodd" d="M45.4304 13.6484C48.6358 14.3765 52.8631 15.104 51.1766 19.1711C50.6112 20.5346 49.8197 21.6747 48.8793 22.9019C48.4376 23.4782 47.9939 24.0474 47.5528 24.5975C47.3158 24.893 47.0963 25.153 46.8866 25.4311C46.747 25.6162 46.7182 25.683 46.563 25.8646C46.2854 26.1894 46.3953 26.1372 46.0493 26.2462L43.0533 18.9183C41.4517 15.4694 39.506 12.1777 36.8203 9.58079C35.5261 8.32945 34.9501 8.4906 33.2426 9.27645C31.8407 9.92175 27.7833 12.3737 26.855 13.2899L27.298 14.2049C29.366 14.1306 29.6488 13.4142 32.3405 17.5736C33.5257 19.4051 34.5103 21.1564 35.5386 23.1735C36.5987 25.253 37.5317 27.2361 38.4046 29.0876L41.1501 35.1346C42.8569 35.232 42.7973 35.3431 43.5208 34.371L56.1016 17.3132C56.9366 16.215 58.9572 13.687 59.2677 12.5845C60.0666 9.7478 55.6884 9.10566 53.7259 8.51104C52.2602 8.06698 52.6227 8.28084 49.9164 10.2497C49.1932 10.7759 45.6253 13.2333 45.4304 13.6484L45.4304 13.6484Z" fill="#2AA6CE"/>
<path fill-rule="evenodd" clip-rule="evenodd" d="M96.336 15.4255C96.4831 15.7792 96.786 16.1691 97.0517 16.4452C98.4611 16.1029 99.3841 15.1929 102.33 15.4046C104.176 15.5373 105.792 16.1793 107.023 17.0095C115.23 22.5441 112.726 33.545 106.134 30.2033C103.647 28.9427 103.494 25.9928 105.68 24.1795L107.554 22.8371C106.995 22.4586 103.238 23.7445 102.719 23.9736C98.6994 25.75 93.2369 31.2353 98.3247 34.6292C101.29 36.6072 105.491 35.9514 108.525 34.4385C111.282 33.0634 113.813 30.6896 115.405 28.6257C119.965 22.7164 118.947 15.781 113.244 11.1667C108.796 7.56829 103.897 8.90956 99.6682 12.389C98.6136 13.2567 96.9784 14.5355 96.336 15.4254V15.4255Z" fill="#B18046"/>
<path fill-rule="evenodd" clip-rule="evenodd" d="M22.7351 28.7413C22.5803 28.2128 22.3907 28.1924 22.118 27.6954C21.3599 27.8635 20.6545 28.283 19.6835 28.5051C16.948 29.1307 14.277 28.5979 12.021 27.0902C7.464 24.0451 5.23692 17.7245 8.11531 14.426C9.22362 13.1559 11.41 13.0685 13.0043 13.9341C14.3595 14.6699 15.5036 16.1853 14.7131 18.2389C14.0216 20.035 11.8578 20.854 11.5268 21.4212C15.3227 20.9379 18.0203 19.6379 20.2004 17.5909C20.9478 16.889 22.412 15.1655 22.7265 13.8505C23.7207 9.69491 17.4838 6.21945 10.5617 9.71871C7.84725 11.0909 5.33175 13.3892 3.68314 15.5226C-0.79805 21.3211 0.085641 28.3824 5.89204 32.9722C10.7928 36.8462 14.9722 34.9905 19.3388 31.8004C20.2821 31.1114 22.1989 29.4482 22.735 28.7413L22.7351 28.7413Z" fill="#2AA6CE"/>
<path fill-rule="evenodd" clip-rule="evenodd" d="M78.9673 29.0157C78.4012 27.5902 77.8377 27.3012 78.5439 25.5611C79.5383 23.1106 80.23 20.4902 78.4401 18.2099C77.9447 17.5788 76.7465 16.3154 75.9516 16.0704C76.3291 16.7137 77.4033 17.288 77.1618 19.436C76.9883 20.9781 76.2842 21.7353 75.8844 22.9282C74.8831 25.916 77.4529 28.5754 78.9673 29.0157Z" fill="#B18046"/>
<path fill-rule="evenodd" clip-rule="evenodd" d="M6.52577 45.3642C7.288 45.2271 8.54475 45.3109 9.36834 45.306C10.388 45.3 11.2237 45.1592 11.247 46.2026C10.9882 47.0556 6.89073 46.7436 6.51907 46.6716L6.52577 45.3642ZM6.54424 42.9953C7.61513 42.831 10.2706 42.7891 11.0072 43.1949L10.9971 43.9527C10.294 44.4289 7.73476 44.3908 6.53193 44.2372L6.54424 42.9953ZM5.35152 47.7208C6.34527 47.8472 9.73409 47.8482 10.7532 47.7387C11.5462 47.6534 12.1891 47.3336 12.3747 46.6775C12.6797 45.5998 12.0198 45.106 11.6322 44.6952C12.7443 43.5253 12.1855 42.0246 10.3792 41.8932C9.33077 41.817 6.32543 41.786 5.35083 41.9265L5.35152 47.7208V47.7208Z" fill="#1F1F1F"/>
<path fill-rule="evenodd" clip-rule="evenodd" d="M52.6649 46.4539C50.4433 47.5296 48.649 46.3546 49.5381 45.3017C51.0956 43.4572 52.657 46.4244 52.6649 46.4539ZM51.7135 41.9287C52.6957 41.1917 53.4728 42.6308 52.5185 43.2447C51.9834 43.589 51.6347 43.6489 51.4251 43.0939C51.1843 42.4566 51.395 42.1677 51.7135 41.9287ZM50.4379 43.6902C49.6696 44.1181 48.5802 44.1717 48.2304 45.245C47.5351 47.3786 50.5443 48.6414 52.9777 47.4719C54.422 46.7778 53.5082 47.653 56.1533 47.7818L56.1444 46.8306L54.6759 46.4679C54.875 45.6971 55.6149 45.3815 55.8012 44.1501L54.6532 44.1486C54.454 44.7714 54.1948 45.3847 53.7121 45.7082C53.2116 45.4942 52.7133 44.9168 52.4394 44.4439C52.8481 44.0543 53.8435 43.9193 54.0653 42.9113C54.5415 40.7469 51.8859 40.1065 50.7271 41.3326C50.0048 42.0967 50.1464 42.6155 50.4378 43.6901L50.4379 43.6902Z" fill="#1F1F1F"/>
<path fill-rule="evenodd" clip-rule="evenodd" d="M84.7409 44.5641L82.1333 44.5493L82.1229 42.9713C83.2183 42.9044 87.5204 42.4623 86.4117 44.2135C86.1282 44.6615 85.3505 44.5639 84.7409 44.5641H84.7409ZM80.9548 47.7359L82.1157 47.7568L82.1306 45.6388L84.9658 45.6303C85.2921 46.0127 86.2069 47.1974 86.4525 47.7461L87.8 47.7641C87.4275 46.9166 86.6984 46.3886 86.3857 45.5747C87.1553 45.0765 87.6089 45.1638 87.7323 44.042C87.835 43.1076 87.4232 42.3954 86.7303 42.0935C85.9424 41.7501 82.0696 41.8427 80.947 41.9013L80.9548 47.736L80.9548 47.7359Z" fill="#1F1F1F"/>
<path fill-rule="evenodd" clip-rule="evenodd" d="M75.4902 44.5629L71.4378 44.5684L71.4229 45.5796L73.9587 45.606C73.5611 47.4497 69.3153 47.3476 69.0396 45.0685C68.8936 43.8622 69.8231 43.1134 70.7206 42.8628C72.3833 42.3986 73.0021 43.1329 73.9373 43.5711L74.9267 43.0902C74.2206 41.8846 71.9218 41.3712 70.1761 41.9152C68.7245 42.3675 67.1749 43.8973 68.0437 45.9477C69.2861 48.8794 75.67 48.7562 75.4902 44.5628L75.4902 44.5629Z" fill="#1F1F1F"/>
<path fill-rule="evenodd" clip-rule="evenodd" d="M30.9276 43.0089C31.6515 42.8639 32.8308 42.9558 33.6143 42.952C34.4887 42.9477 35.3586 42.8952 35.3329 43.8143C35.3069 44.7438 34.2559 44.5673 33.4877 44.5642C32.7485 44.5613 31.609 44.6461 30.9152 44.5035L30.9276 43.0089H30.9276ZM33.8744 45.7643C34.1829 46.0773 34.5389 46.6509 34.8533 47.0984C35.3856 47.8561 35.3674 47.8889 36.6153 47.7215C36.3004 47.0414 35.4217 46.2129 35.1768 45.5747C35.9496 45.0653 36.5754 45.0634 36.5366 43.6901C36.5095 42.7256 35.8394 41.9953 34.9764 41.9988L29.7922 41.9552L29.7982 47.7079L30.842 47.6801L30.8573 45.6156L33.4871 45.5456C34.1405 45.6161 33.6686 45.5611 33.8744 45.7643Z" fill="#1F1F1F"/>
<path fill-rule="evenodd" clip-rule="evenodd" d="M20.9251 43.0451C21.2548 43.3853 22.0648 44.9069 22.2105 45.4356L19.5971 45.4118L20.9251 43.0451ZM17.0825 47.7679L18.3577 47.7594L18.9345 46.5745L22.9465 46.5465C23.4911 48.0197 23.6901 47.7623 24.7773 47.7696C24.5533 47.0869 22.1979 42.8752 21.6789 41.9492L20.1493 41.8782C19.7471 43.1049 17.475 46.5061 17.0825 47.7679V47.7679Z" fill="#1F1F1F"/>
<path fill-rule="evenodd" clip-rule="evenodd" d="M100.217 47.5899C100.95 47.8161 104.854 47.72 105.841 47.6712L105.862 46.7687L101.398 46.7471C101.143 46.1288 101.292 42.866 101.314 41.9498L100.21 42.0506L100.217 47.5899V47.5899Z" fill="#1F1F1F"/>
<path fill-rule="evenodd" clip-rule="evenodd" d="M116.437 46.7162L112.169 46.7203C111.988 46.5093 111.998 47.0384 112.023 46.3283L112.025 41.9528L110.971 41.9556L110.969 47.6972L116.544 47.6818L116.437 46.7162L116.437 46.7162Z" fill="#1F1F1F"/>
<path fill-rule="evenodd" clip-rule="evenodd" d="M93.2726 47.7254L94.4404 47.7634L94.4405 41.8974L93.2722 41.8938L93.2726 47.7254Z" fill="#1F1F1F"/>
<path fill-rule="evenodd" clip-rule="evenodd" d="M116.437 46.7162L116.544 47.6819L110.969 47.6972L110.971 41.9556L112.025 41.9528L112.022 46.3283C111.998 47.0384 111.988 46.5093 112.169 46.7203C112.096 45.5407 112.324 42.7638 112.078 41.8604L110.918 41.8333C110.77 42.4619 110.767 47.2049 110.923 47.7888L116.608 47.8175C116.928 46.4486 116.537 46.7799 116.437 46.7162L116.437 46.7162Z" fill="#898989"/>
<path fill-rule="evenodd" clip-rule="evenodd" d="M33.8745 45.7643C33.6687 45.561 34.1406 45.6161 33.4872 45.5456L30.8573 45.6155L30.842 47.6801L29.7982 47.7078L29.7923 41.9552L34.9765 41.9988C34.7667 41.6694 32.8678 41.8305 32.4822 41.8305C31.5987 41.8305 30.6452 41.7957 29.7709 41.8498C29.5614 42.4926 29.5732 47.096 29.757 47.8048L30.9058 47.8031L30.9927 45.7044L33.8744 45.7643H33.8745Z" fill="#898989"/>
<path fill-rule="evenodd" clip-rule="evenodd" d="M100.217 47.5898C100.352 47.9313 100.158 47.8277 101.448 47.8199C102.491 47.8136 105.229 47.8968 105.897 47.7662L105.977 46.7271C105.113 46.5033 102.518 46.657 101.46 46.6292L101.431 41.8815C100.105 41.6738 100.337 41.868 100.21 42.0505L101.314 41.9497C101.292 42.8659 101.143 46.1287 101.398 46.747L105.862 46.7686L105.841 47.6711C104.854 47.7199 100.95 47.816 100.217 47.5898V47.5898Z" fill="#898989"/>
</svg>
