<svg width="18" height="18" viewBox="0 0 18 18" fill="none" xmlns="http://www.w3.org/2000/svg">
<path fill-rule="evenodd" clip-rule="evenodd" d="M8.94225 0C13.8809 0 17.8845 4.00358 17.8845 8.94225C17.8845 13.8809 13.8809 17.8845 8.94225 17.8845C4.00358 17.8845 0 13.8809 0 8.94225C0 4.00358 4.00358 0 8.94225 0ZM11.7085 15.2203C12.1603 15.2203 12.5082 15.0305 12.8176 14.8068L13.7033 14.0748C13.7952 13.9853 14.0338 13.8177 14.0937 13.7311C14.2317 13.532 14.1757 13.1977 14.1064 12.999C13.9703 12.6082 13.7028 12.2251 13.4315 11.9204C13.4023 11.8878 13.3921 11.869 13.3636 11.8386L13.1457 11.608C13.1151 11.5762 13.1122 11.5642 13.0847 11.533C12.9539 11.3842 12.5353 11.0232 12.3883 10.9108C12.0348 10.6403 11.8406 10.4625 11.4798 10.696C10.9839 11.0168 10.769 11.4022 10.4823 11.8735C10.4337 11.9533 10.2204 12.3999 10.2131 12.4879C10.1586 12.4834 10.061 12.4169 10.0135 12.3884L9.37227 11.9693C9.34018 11.9456 9.3171 11.9329 9.28545 11.9067C9.06237 11.7218 8.82543 11.5531 8.61949 11.3492C8.58575 11.3159 8.57103 11.3107 8.53773 11.2814C8.50762 11.2549 8.48509 11.2289 8.45608 11.1999L7.80099 10.4819C7.41449 9.98691 7.05547 9.47645 6.77381 8.91258C6.67007 8.70477 6.56006 8.50366 6.47467 8.28717C6.41764 8.14233 6.35302 7.99847 6.2995 7.85056C6.18807 7.54307 6.0918 7.2546 6.01245 6.91425C6.15301 6.90249 6.30653 6.85161 6.4417 6.81326C6.9537 6.66831 7.94232 6.36687 8.15683 5.86388C8.26211 5.61727 8.07584 5.28836 7.97463 5.06066C7.9188 4.93505 7.8722 4.81438 7.81132 4.69372L7.63912 4.33568C7.46241 3.98215 7.2791 3.63961 7.04371 3.32696C7.00491 3.27541 6.97019 3.23618 6.9292 3.18321C6.78249 2.99419 6.56116 2.79122 6.33324 2.70517C6.10598 2.61967 5.90597 2.67473 5.71596 2.79759L4.75196 3.45136C4.57503 3.58411 4.31645 3.78346 4.18293 3.9561C4.00676 4.18402 3.87764 4.32524 3.77774 4.62481C3.64027 5.03692 3.72862 5.49078 3.80665 5.88421C3.86401 6.17312 4.0771 7.02744 4.18117 7.29053L4.36568 7.82638C4.39612 7.9177 4.42821 8.01034 4.46261 8.0965C4.59987 8.44069 4.71515 8.79576 4.86581 9.13424L4.97351 9.38007C5.22319 9.98131 5.58826 10.5609 5.95795 11.0872L6.85864 12.1577C6.98228 12.2809 7.09569 12.3944 7.21888 12.5179C7.45845 12.7578 7.71879 12.9824 7.98045 13.1974C8.17562 13.3577 8.81389 13.784 9.03028 13.9283C9.48348 14.2305 9.98537 14.5847 10.4712 14.8256C10.8269 15.0021 11.2221 15.2198 11.7084 15.2198L11.7085 15.2203ZM8.94225 1.00114C13.3279 1.00114 16.8832 4.55646 16.8832 8.94214C16.8832 13.3278 13.3279 16.8831 8.94225 16.8831C4.55657 16.8831 1.00125 13.3278 1.00125 8.94214C1.00125 4.55646 4.55657 1.00114 8.94225 1.00114Z" fill="#2469CF"/>
</svg>
